<svg xmlns="http://www.w3.org/2000/svg" width="1655" height="119" viewBox="0 0 1655.5752 118.3646"><defs><style>.uuid-2c2f2612-0237-4032-9771-415d9966cd78{fill:#f7f7f7;stroke-width:0px;}</style></defs><rect class="uuid-2c2f2612-0237-4032-9771-415d9966cd78" y="49.2631" width="396.7015" height="8.7645"></rect><polygon class="uuid-2c2f2612-0237-4032-9771-415d9966cd78" points="451.7031 13.3254 475.8127 13.3254 475.8127 91.7097 489.02 91.7097 489.02 13.3254 512.8872 13.3254 512.8872 1.454 451.7031 1.454 451.7031 13.3254"></polygon><path class="uuid-2c2f2612-0237-4032-9771-415d9966cd78" d="m563.1628,27.9866c-3.7156-2.1001-7.9551-3.1501-12.7207-3.1501s-8.9263,1.1101-12.4783,3.3303c-2.3105,1.4441-4.203,3.2947-5.6934,5.5391V0h-12.4805v91.7097h12.4805v-38.6464c0-3.3925.6648-6.2982,1.9985-8.7213,1.3318-2.4232,3.1501-4.3018,5.4512-5.6334,2.303-1.3337,4.9064-2.0006,7.8142-2.0006s5.4924.6669,7.7542,2.0006c2.2595,1.3317,4.0386,3.2102,5.3309,5.6334,1.2903,2.4231,1.9386,5.3289,1.9386,8.7213v38.6464h12.4783v-42.2791c0-4.7656-1.05-9.0051-3.1501-12.7227-2.1001-3.7135-5.0079-6.6213-8.7234-8.7214Z"></path><path class="uuid-2c2f2612-0237-4032-9771-415d9966cd78" d="m641.7915,34.407c-2.6655-2.9866-5.8964-5.3309-9.6926-7.0271-3.7964-1.6963-8.158-2.5435-13.083-2.5435-6.058,0-11.5112,1.4747-16.3574,4.4219-4.8444,2.9492-8.6614,6.9651-11.447,12.0537-2.7876,5.0886-4.1814,10.9043-4.1814,17.4468s1.4124,12.3975,4.2415,17.5669c2.825,5.1694,6.7228,9.2703,11.6914,12.2941,4.9663,3.0321,10.6805,4.5481,17.1423,4.5481,4.4404,0,8.5204-.7125,12.236-2.1207,3.7155-1.4167,6.9464-3.3552,9.6926-5.8157,2.7443-2.4646,4.7656-5.2274,6.058-8.3009l-10.4197-5.0865c-1.777,2.9077-4.1007,5.3102-6.9651,7.2073-2.8684,1.8972-6.3623,2.8499-10.4797,2.8499-3.9598,0-7.5117-.9526-10.6619-2.8499-3.1501-1.8971-5.594-4.5647-7.3296-7.9944-1.2546-2.4792-1.9631-5.2897-2.1431-8.421h49.3307c.2423-.9692.4039-2.0006.4846-3.09.0808-1.0895.1222-2.1208.1222-3.0901,0-4.1981-.7083-8.1768-2.1208-11.9336-1.4146-3.7549-3.4524-7.1267-6.1179-10.1152Zm-32.8329,4.0593c2.9886-1.8971,6.3396-2.8477,10.0573-2.8477,3.7134,0,7.0044.9506,9.8728,2.8477,2.8665,1.8972,5.0078,4.4425,6.4204,7.632.8518,1.9247,1.2932,4.006,1.3381,6.2382h-36.3054c.3195-2.1047.8877-4.0442,1.7118-5.8136,1.6155-3.4733,3.9164-6.1593,6.905-8.0565Z"></path><polygon class="uuid-2c2f2612-0237-4032-9771-415d9966cd78" points="723.7263 44.5891 692.9142 1.454 680.8004 1.454 680.8004 91.7097 693.8835 91.7097 693.8835 24.8495 722.9614 65.6638 724.1731 65.6638 753.1289 25.6012 753.1289 91.7097 766.3342 91.7097 766.3342 1.454 754.0981 1.454 723.7263 44.5891"></polygon><path class="uuid-2c2f2612-0237-4032-9771-415d9966cd78" d="m822.2451,27.7444c-3.9185-1.9386-8.4209-2.908-13.5096-2.908-4.0386,0-7.8556.6855-11.4489,2.0588-3.5955,1.3751-6.7435,3.2701-9.4504,5.6934-2.7069,2.4231-4.7056,5.2108-5.9958,8.361l10.662,5.3309c1.3711-2.9885,3.4525-5.4324,6.2382-7.3296,2.7876-1.8971,5.9978-2.8477,9.6326-2.8477,4.1194,0,7.429,1.0707,9.9329,3.2102,2.504,2.1414,3.7571,4.8669,3.7571,8.1787v2.7407l-21.5663,3.5574c-4.9271.8098-9.0072,2.1809-12.236,4.1194-3.231,1.9385-5.6147,4.3245-7.1473,7.1494-1.5347,2.825-2.3031,5.9771-2.3031,9.4482,0,3.7156.928,6.9672,2.7878,9.7549,1.8556,2.7834,4.4403,4.9664,7.7542,6.5405,3.3096,1.5781,7.1472,2.3651,11.5089,2.3651,3.7135,0,7.1058-.5468,10.1774-1.6403,3.0673-1.0853,5.7927-2.6013,8.1766-4.5398,1.2378-1.0076,2.3446-2.1067,3.3324-3.2888v8.0107h12.1157v-44.2175c0-4.4426-1.0913-8.3611-3.2722-11.7534-2.1809-3.3926-5.2295-6.058-9.146-7.9944Zm-2.6053,45.976c-1.6176,2.8705-3.8771,5.1322-6.7849,6.7848-2.9078,1.657-6.3002,2.4812-10.1774,2.4812-3.15,0-5.7347-.845-7.7542-2.5432-2.0193-1.6941-3.0278-3.7942-3.0278-6.2961,0-2.7463.9092-5.012,2.7256-6.7849,1.8184-1.7769,4.6641-2.9906,8.5411-3.6367l18.9008-3.2986v3.7832c0,3.4752-.8079,6.644-2.4232,9.5104Z"></path><path class="uuid-2c2f2612-0237-4032-9771-415d9966cd78" d="m866.3428,28.2891c-2.4186,1.3763-4.3352,3.3945-5.7556,6.0474v-8.046h-12.1158v65.4193h12.4803v-38.2819c0-5.1674,1.4104-9.1666,4.2395-11.9937,2.825-2.827,6.499-4.2416,11.0223-4.2416h5.6954v-11.6292h-3.9971c-4.5233,0-8.3796.9071-11.5691,2.7256Z"></path><polygon class="uuid-2c2f2612-0237-4032-9771-415d9966cd78" points="945.8765 26.2904 930.0037 26.2904 901.2944 55.8278 901.2944 0 888.814 0 888.814 91.7097 901.2944 91.7097 901.2944 71.9998 911.8032 60.9644 932.5513 91.7097 947.2103 91.7097 921.04 52.5786 945.8765 26.2904"></polygon><path class="uuid-2c2f2612-0237-4032-9771-415d9966cd78" d="m1003.2994,34.407c-2.6635-2.9866-5.8943-5.3309-9.6927-7.0271-3.7942-1.6963-8.1558-2.5435-13.0808-2.5435-6.0601,0-11.5112,1.4747-16.3574,4.4219-4.8464,2.9492-8.6614,6.9651-11.449,12.0537-2.7878,5.0886-4.1794,10.9043-4.1794,17.4468s1.4124,12.3975,4.2415,17.5669c2.825,5.1694,6.7228,9.2703,11.6892,12.2941,4.9666,3.0321,10.6826,4.5481,17.1445,4.5481,4.4404,0,8.5204-.7125,12.2358-2.1207,3.7156-1.4167,6.9465-3.3552,9.6927-5.8157,2.7421-2.4646,4.7635-5.2274,6.0558-8.3009l-10.4175-5.0865c-1.777,2.9077-4.1008,5.3102-6.967,7.2073-2.8665,1.8972-6.3624,2.8499-10.4797,2.8499-3.96,0-7.5098-.9526-10.662-2.8499-3.1481-1.8971-5.5919-4.5647-7.3275-7.9944-1.2561-2.4792-1.9639-5.2897-2.1436-8.421h49.3312c.2402-.9692.4017-2.0006.4846-3.09.0787-1.0895.1201-2.1208.1201-3.0901,0-4.1981-.7084-8.1768-2.1207-11.9336-1.4126-3.7549-3.4504-7.1267-6.118-10.1152Zm-32.8308,4.0593c2.9865-1.8971,6.3375-2.8477,10.0573-2.8477,3.7113,0,7.0044.9506,9.8707,2.8477,2.8663,1.8972,5.0079,4.4425,6.4203,7.632.8518,1.9247,1.2939,4.006,1.3395,6.2382h-36.3054c.3192-2.1047.8876-4.0442,1.7126-5.8136,1.6155-3.4733,3.9144-6.1593,6.905-8.0565Z"></path><path class="uuid-2c2f2612-0237-4032-9771-415d9966cd78" d="m1052.7322,81.1721c-2.5889,0-4.689-.4432-6.3003-1.3337-1.6196-.8865-2.7877-2.1208-3.5167-3.6948-.7249-1.5741-1.0894-3.4919-1.0894-5.7535v-32.4705h14.7792v-11.6292h-14.7792v-15.0236h-12.4762v5.2087c0,2.9906-.8491,5.3723-2.5475,7.1494-1.6942,1.7769-4.0387,2.6654-7.025,2.6654h-2.1831v11.6292h11.7556v32.9552c0,6.8677,1.7935,12.1738,5.3889,15.9307,3.5955,3.7529,8.7441,5.6333,15.4462,5.6333.9692,0,2.1207-.0579,3.4546-.1821,1.3337-.1201,2.5226-.3025,3.5746-.5469v-10.9021c-.729.0828-1.4952.1656-2.303.2402-.8077.0828-1.5367.1243-2.1787.1243Z"></path><rect class="uuid-2c2f2612-0237-4032-9771-415d9966cd78" x="1068.4766" y="1.454" width="12.4802" height="15.1437"></rect><rect class="uuid-2c2f2612-0237-4032-9771-415d9966cd78" x="1068.4766" y="26.2904" width="12.4802" height="65.4193"></rect><path class="uuid-2c2f2612-0237-4032-9771-415d9966cd78" d="m1138.2638,27.9866c-3.7155-2.1001-7.9572-3.1501-12.7206-3.1501-4.7676,0-8.9264,1.1101-12.4805,3.3303-2.5027,1.5651-4.5144,3.6099-6.0558,6.1151v-7.9915h-12.1158v65.4193h12.4803v-38.6464c0-3.3925.6421-6.2982,1.9344-8.7213,1.2924-2.4232,3.0901-4.3018,5.3931-5.6334,2.303-1.3337,4.9084-2.0006,7.8163-2.0006,2.9865,0,5.6127.6669,7.8743,2.0006,2.2574,1.3317,4.0387,3.2102,5.3309,5.6334,1.2883,2.4231,1.9386,5.3289,1.9386,8.7213v38.6464h12.4762v-42.2791c0-4.7656-1.048-9.0051-3.1481-12.7227-2.1-3.7135-5.0079-6.6213-8.7234-8.7214Z"></path><path class="uuid-2c2f2612-0237-4032-9771-415d9966cd78" d="m1213.498,34.9723c-2.207-2.8113-4.8699-5.0839-7.9985-6.8055-4.0386-2.2202-8.6033-3.3303-13.6899-3.3303-6.0558,0-11.4902,1.4333-16.2952,4.2997-4.8049,2.8684-8.5826,6.7247-11.3289,11.5712-2.7463,4.8463-4.1174,10.3782-4.1174,16.5977,0,6.1387,1.3711,11.6726,4.1174,16.5977,2.7462,4.925,6.5446,8.8269,11.3909,11.6934,4.8464,2.8665,10.3347,4.2996,16.4775,4.2996,5.0038,0,9.5685-1.1309,13.6899-3.3925,2.8809-1.5824,5.2971-3.6898,7.2695-6.3014v8.6003c0,3.7983-.8491,7.0085-2.5475,9.6346-1.6941,2.6219-3.9764,4.6227-6.8429,5.9979-2.8705,1.3711-6.0806,2.0586-9.6305,2.0586-4.6888,0-8.566-1.0314-11.6312-3.0901-3.0735-2.0586-5.1694-4.6267-6.3003-7.6919l-11.6311,4.9664c1.3711,3.5498,3.4918,6.6399,6.3582,9.266,2.8665,2.6262,6.3003,4.6848,10.3016,6.1802,3.9972,1.4912,8.3381,2.2408,13.0229,2.2408,6.1346,0,11.5691-1.2716,16.2953-3.8148,4.7222-2.5435,8.4376-6.0559,11.1466-10.542,2.7048-4.4817,4.0552-9.5518,4.0552-15.2058V26.2904h-12.1117v8.6819Zm-3.0901,32.8124c-1.7397,3.1107-4.0801,5.5753-7.0293,7.3896-2.9492,1.8184-6.3209,2.7255-10.1151,2.7255-3.8771,0-7.3275-.9071-10.3595-2.7255-3.0281-1.8143-5.4098-4.2789-7.1453-7.3896-1.7397-3.1067-2.6055-6.5613-2.6055-10.3596,0-3.9558.8657-7.4683,2.6055-10.5398,1.7355-3.0693,4.1379-5.5319,7.2073-7.3896,3.0693-1.8577,6.499-2.7876,10.2975-2.7876,3.7155,0,7.0665.9299,10.0573,2.7876,2.9865,1.8578,5.3474,4.3411,7.0872,7.4497,1.7356,3.1108,2.6055,6.6027,2.6055,10.4797,0,3.7983-.8699,7.2529-2.6055,10.3596Z"></path><polygon class="uuid-2c2f2612-0237-4032-9771-415d9966cd78" points="1259.1697 91.7097 1272.2546 91.7097 1272.2546 53.3057 1312.5995 53.3057 1312.5995 41.4342 1272.2546 41.4342 1272.2546 13.3254 1317.2014 13.3254 1317.2014 1.454 1259.1697 1.454 1259.1697 91.7097"></polygon><path class="uuid-2c2f2612-0237-4032-9771-415d9966cd78" d="m1341.2509,28.2891c-2.4159,1.3757-4.3328,3.3926-5.7535,6.0437v-8.0424h-12.1157v65.4193h12.4802v-38.2819c0-5.1674,1.4084-9.1666,4.2375-11.9937s6.5032-4.2416,11.0264-4.2416h5.6956v-11.6292h-4.0013c-4.5233,0-8.3796.9071-11.5691,2.7256Z"></path><rect class="uuid-2c2f2612-0237-4032-9771-415d9966cd78" x="1363.7222" y="26.2904" width="12.4803" height="65.4193"></rect><rect class="uuid-2c2f2612-0237-4032-9771-415d9966cd78" x="1363.7222" y="1.454" width="12.4803" height="15.1437"></rect><path class="uuid-2c2f2612-0237-4032-9771-415d9966cd78" d="m1442.2288,34.407c-2.6636-2.9866-5.8943-5.3309-9.6926-7.0271-3.7944-1.6963-8.156-2.5435-13.0811-2.5435-6.0601,0-11.5112,1.4747-16.3574,4.4219-4.8464,2.9492-8.6614,6.9651-11.449,12.0537-2.7878,5.0886-4.1794,10.9043-4.1794,17.4468s1.4124,12.3975,4.2415,17.5669c2.825,5.1694,6.7229,9.2703,11.6892,12.2941,4.9666,3.0321,10.6826,4.5481,17.1445,4.5481,4.4404,0,8.5205-.7125,12.2358-2.1207,3.7156-1.4167,6.9465-3.3552,9.6929-5.8157,2.7422-2.4646,4.7634-5.2274,6.0557-8.3009l-10.4175-5.0865c-1.7769,2.9077-4.1006,5.3102-6.967,7.2073-2.8665,1.8972-6.3625,2.8499-10.4797,2.8499-3.96,0-7.5098-.9526-10.6619-2.8499-3.1482-1.8971-5.592-4.5647-7.3276-7.9944-1.2561-2.4792-1.9639-5.2897-2.1436-8.421h49.3313c.2402-.9692.4019-2.0006.4846-3.09.0786-1.0895.1201-2.1208.1201-3.0901,0-4.1981-.7083-8.1768-2.1208-11.9336-1.4126-3.7549-3.4504-7.1267-6.1179-10.1152Zm-32.8308,4.0593c2.9863-1.8971,6.3374-2.8477,10.0571-2.8477,3.7114,0,7.0044.9506,9.8706,2.8477,2.8665,1.8972,5.0081,4.4425,6.4204,7.632.8521,1.9247,1.2939,4.006,1.3396,6.2382h-36.3054c.3193-2.1047.8875-4.0442,1.7126-5.8136,1.6155-3.4733,3.9143-6.1593,6.905-8.0565Z"></path><path class="uuid-2c2f2612-0237-4032-9771-415d9966cd78" d="m1504.9868,27.9866c-3.7156-2.1001-7.9573-3.1501-12.7207-3.1501-4.7676,0-8.9263,1.1101-12.4805,3.3303-2.5027,1.5651-4.5142,3.6099-6.0557,6.115v-7.9913h-12.116v65.4193h12.4805v-38.6464c0-3.3925.6418-6.2982,1.9343-8.7213,1.2925-2.4232,3.0901-4.3018,5.3931-5.6334,2.3032-1.3337,4.9084-2.0006,7.8164-2.0006,2.9863,0,5.6125.6669,7.874,2.0006,2.2576,1.3317,4.0388,3.2102,5.3311,5.6334,1.2883,2.4231,1.9385,5.3289,1.9385,8.7213v38.6464h12.4763v-42.2791c0-4.7656-1.0481-9.0051-3.1479-12.7227-2.1001-3.7135-5.0081-6.6213-8.7234-8.7214Z"></path><path class="uuid-2c2f2612-0237-4032-9771-415d9966cd78" d="m1581.3103,34.4316c-2.0955-2.5837-4.698-4.6919-7.812-6.325-4.1628-2.1808-8.8643-3.2703-14.1165-3.2703-6.2175,0-11.793,1.4954-16.718,4.4819-4.929,2.9885-8.8062,7.0479-11.6311,12.1759-2.8291,5.13-4.2417,10.9642-4.2417,17.507,0,6.4637,1.4126,12.2793,4.2417,17.4446,2.825,5.1736,6.7021,9.2495,11.6311,12.2402,4.925,2.9865,10.5005,4.4818,16.718,4.4818,5.1694,0,9.8955-1.1143,14.1743-3.3345,3.3794-1.7518,6.1169-4.1036,8.2388-7.0386v8.9149h12.116V0h-12.6006v34.4316Zm-2.7256,36.0205c-1.8184,3.3469-4.283,5.9937-7.3894,7.9323-3.1108,1.9386-6.644,2.9078-10.6001,2.9078-3.9597,0-7.5137-.9692-10.6619-2.9078-3.1521-1.9386-5.6167-4.5853-7.3896-7.9323-1.7769-3.3552-2.6675-7.1702-2.6675-11.4509s.8906-8.0959,2.6675-11.449c1.7729-3.3511,4.2375-5.9979,7.3896-7.9365,3.1482-1.9385,6.7021-2.9077,10.6619-2.9077,3.9561,0,7.4893.9692,10.6001,2.9077,3.1064,1.9386,5.571,4.5854,7.3894,7.9365,1.8186,3.353,2.7256,7.168,2.7256,11.449s-.907,8.0957-2.7256,11.4509Z"></path><path class="uuid-2c2f2612-0237-4032-9771-415d9966cd78" d="m1638.7373,55.002l-10.6619-3.1501c-1.2922-.4019-2.6055-.9072-3.9392-1.514-1.3337-.6047-2.4438-1.4539-3.3303-2.5433-.8904-1.0913-1.3337-2.4832-1.3337-4.1794,0-2.3423.9277-4.2809,2.7876-5.8156,1.8557-1.5347,4.3203-2.3031,7.3896-2.3031,3.5542,0,6.7642.9507,9.6306,2.8478,2.8665,1.8993,4.9458,4.5026,6.238,7.8142l10.0571-4.604c-1.9385-5.2482-5.2314-9.3468-9.8748-12.296-4.6433-2.9471-9.9124-4.4219-15.8108-4.4219-4.3616,0-8.2966.8079-11.8093,2.4233-3.5166,1.6154-6.2629,3.875-8.2388,6.7827-1.98,2.9078-2.97,6.3417-2.97,10.2996,0,4.2809,1.3711,8.0151,4.1216,11.2065,2.7422,3.1917,7.0251,5.6334,12.8408,7.3318l10.0571,2.7834c1.2881.406,2.6633.9279,4.1172,1.574,1.4541.6462,2.6677,1.5161,3.6328,2.6055.9692,1.0894,1.4539,2.5267,1.4539,4.3037,0,2.5847-1.0894,4.6641-3.2683,6.238-2.1829,1.5741-4.9663,2.3611-8.3589,2.3611-3.7983,0-7.29-1.1101-10.4795-3.3303-3.1936-2.2202-5.6748-5.2273-7.4519-9.0258l-9.8127,4.6019c2.0171,5.5754,5.4883,9.9951,10.4175,13.2673,4.925,3.2683,10.7034,4.9086,17.3267,4.9086,4.7637,0,8.9431-.8285,12.5386-2.4852,3.5911-1.657,6.4204-3.9352,8.479-6.843,2.0586-2.9077,3.0898-6.2629,3.0898-10.0571,0-4.4404-1.4746-8.3009-4.4194-11.5732-2.9536-3.2681-7.0916-5.6707-12.4185-7.2073Z"></path></svg>
